<svg xmlns="http://www.w3.org/2000/svg" version="1.1" xmlns:xlink="http://www.w3.org/1999/xlink" width="1000" height="1000"><metadata><rdf:RDF xmlns:rdf="http://www.w3.org/1999/02/22-rdf-syntax-ns#" xmlns:dc="http://purl.org/dc/elements/1.1/"><rdf:Description><dc:creator>RealFaviconGenerator</dc:creator><dc:source>https://realfavicongenerator.net</dc:source></rdf:Description></rdf:RDF></metadata><g clip-path="url(#SvgjsClipPath1389)"><rect width="1000" height="1000" fill="#000000"></rect><g transform="matrix(4.5,0,0,4.5,50,50)"><svg xmlns="http://www.w3.org/2000/svg" version="1.1" xmlns:xlink="http://www.w3.org/1999/xlink" viewBox="0 0 200 200" width="200" height="200"><rect width="200" height="200" fill="url('#gradient')"></rect><defs><linearGradient id="gradient" gradientTransform="rotate(45 0.5 0.5)"><stop offset="0%" stop-color="#070c23"></stop><stop offset="100%" stop-color="#191819"></stop></linearGradient><clipPath id="SvgjsClipPath1389"><rect width="1000" height="1000" x="0" y="0" rx="250" ry="250"></rect></clipPath></defs><g><g fill="#fefbf8" transform="matrix(6.688084730803177,0,0,6.688084730803177,18.836416580586558,147.55165819545184)" stroke="#070c23" stroke-width="1.1"><path d="M10.03-8.30L10.03-5.66L4.50-5.66L4.50 0L1.07 0L1.07-14.22L10.59-14.22L10.59-11.57L4.50-11.57L4.50-8.30L10.03-8.30ZM17.63-4.82L15.44-4.82L15.44 0L12.01 0L12.01-14.22L17.69-14.22Q19.32-14.22 20.57-13.62Q21.83-13.02 22.51-11.91Q23.20-10.80 23.20-9.39L23.20-9.39Q23.20-7.31 21.71-6.07Q20.22-4.82 17.63-4.82L17.63-4.82ZM15.44-11.57L15.44-7.47L17.69-7.47Q18.68-7.47 19.20-7.97Q19.73-8.47 19.73-9.38L19.73-9.38Q19.73-10.37 19.19-10.97Q18.65-11.56 17.72-11.57L17.72-11.57L15.44-11.57Z"></path></g></g></svg></g></g></svg>